<svg id="Layer_2" data-name="Layer 2" xmlns="http://www.w3.org/2000/svg" viewBox="0 0 442.29 369.71"><defs><style>.cls-1,.cls-3{fill:#fff;}.cls-1{stroke:#000;stroke-miterlimit:10;}.cls-2{fill:#999;}</style></defs><title>gcash</title><path class="cls-1" d="M307.71,46.22" transform="translate(-0.74 -0.14)"/><path class="cls-2" d="M443,186.94c0,38-7.47,72.37-19.53,97.1-7.31,15-16.3,26.44-26.33,33a26.16,26.16,0,0,1-25.09-25.86,143.32,143.32,0,0,0,9.44-20.43c8.68-23.13,13.85-52.22,13.85-83.82,0-29-4.34-55.81-11.74-77.89A143.35,143.35,0,0,0,370,79.2a26.19,26.19,0,0,1,25.37-19.7,26.54,26.54,0,0,1,6.47.8c7.31,6.09,14,14.85,19.7,25.68h0C434.75,111,443,146.93,443,186.94Z" transform="translate(-0.74 -0.14)"/><path class="cls-2" d="M370.45,185a184.72,184.72,0,0,1-8.76,56.39h0A184,184,0,0,1,347,275.25a24.66,24.66,0,0,1-8.19,1.38,25.07,25.07,0,0,1-25.07-25.07c0-.79,0-1.56.11-2.33a137.49,137.49,0,0,0,6.05-14.1h0a142.08,142.08,0,0,0-8-115.6,25.06,25.06,0,0,1,37.49-20.37A184.14,184.14,0,0,1,370.45,185Z" transform="translate(-0.74 -0.14)"/><path class="cls-2" d="M307.52,46.05a25.09,25.09,0,0,1-29.28,31.8,141.66,141.66,0,0,0-91.93-33.73,142.23,142.23,0,1,0,92.86,249.81,24.33,24.33,0,0,1,3.44-.24,25.08,25.08,0,0,1,25.07,25.07,24.65,24.65,0,0,1-.64,5.6,184.25,184.25,0,0,1-121.45,45.49C83.5,369.85.74,287.09.74,185S83.5.14,185.59.14a184.07,184.07,0,0,1,98.08,28.13A186.07,186.07,0,0,1,307.52,46.05Z" transform="translate(-0.74 -0.14)"/><path class="cls-3" d="M303.78,176.66c.22,3,.35,5.92.35,8.92A118.4,118.4,0,1,1,256.78,90.9a24.9,24.9,0,0,1-21.34,37.71c-.79,0-1.57,0-2.34-.11a74.16,74.16,0,1,0,24.16,78.61l-1.12.73H199.76S183.19,202,185.81,185s17-20.71,17-20.71,30,.22,54.34.23c12.59,0,23.65,0,28.2-.22,12.91-.47,18.08,11.58,18.39,12.32a.16.16,0,0,1,0,0Z" transform="translate(-0.74 -0.14)"/></svg>