<svg id="Layer_4" data-name="Layer 4" xmlns="http://www.w3.org/2000/svg" viewBox="0 0 430.96 275.42"><defs><style>.cls-1{fill:#f2f2f2;}.cls-2{fill:#b3b3b3;}.cls-3{fill:#928d8b;}</style></defs><title>MAster card</title><path class="cls-1" d="M331.89,106.38c73.23,0,132.59,61.65,132.59,137.71S405.12,381.8,331.89,381.8A129,129,0,0,1,249,351.56c30.29-25.23,49.69-64,49.69-107.47S279.29,161.84,249,136.61A129,129,0,0,1,331.89,106.38Z" transform="translate(-33.52 -106.38)"/><path class="cls-2" d="M249,136.61c30.29,25.23,49.69,64,49.69,107.48S279.29,326.33,249,351.56c-30.29-25.23-49.69-64-49.69-107.47S218.71,161.84,249,136.61Z" transform="translate(-33.52 -106.38)"/><path class="cls-3" d="M249,136.61c-30.29,25.23-49.69,64-49.69,107.48s19.4,82.24,49.69,107.47a129,129,0,0,1-82.89,30.24c-73.23,0-132.59-61.66-132.59-137.71S92.88,106.38,166.11,106.38A129,129,0,0,1,249,136.61Z" transform="translate(-33.52 -106.38)"/></svg>