<svg xmlns="http://www.w3.org/2000/svg" viewBox="0 0 442.59 497.92"><defs><style>.cls-1{fill:none;stroke:#000;stroke-miterlimit:10;}.cls-2{fill:#fff;}</style></defs><title>ub-5</title><g id="Layer_2" data-name="Layer 2"><path class="cls-1" d="M453.82,596.3" transform="translate(-30.8 0.72)"/><path class="cls-2" d="M470.69,347.41c7.39,34.91-6.24,64.45-6.24,64.45-13.23,21.31-28.72,32.82-37.62,38.42a125.69,125.69,0,0,1-21.66,10.66c-12.51,4.77-20.22,5.5-44.91,8.87-19.94,2.72-39.81,5.91-59.74,8.67,0,0,10.12-12,20.75-27.86s21.78-35.42,23.83-50.53l36.3-2.44s23-5,23-29.34c0,0,2-25.49-22.67-35.07l-62.15-2.12q-1,22.81-2,45.63c-2.47,14.77-9.68,44.84-33.86,72.34a140.83,140.83,0,0,1-39.85,31.46A145.54,145.54,0,0,1,180,496.7c-2.8.05-70.21.39-112.4-47.45a151.56,151.56,0,0,1-25.42-41.47,146.64,146.64,0,0,1-8.08-29.59s-1.05-6.6-2.8-35.13V0L146.5,42.25l.62,286.33s0,43.14,42.93,43.35,48.7-33.1,49.55-45.7V76.81l146.66,52s41.41,15.53,57.3,52,8,73,8,73A117.54,117.54,0,0,1,432.27,292S463.3,312.5,470.69,347.41ZM386.63,229.93c3.9-24.77-23.1-34.79-23.1-34.79l-44.81-10V258l43.14,2.23S382.74,254.7,386.63,229.93Z" transform="translate(-30.8 0.72)"/><path class="cls-1" d="M31.3,0,146.5,42.25l.62,286.33s0,43.14,42.93,43.35,48.7-33.1,49.55-45.7V76.81l146.66,52s41.41,15.53,57.3,52,8,73,8,73A117.54,117.54,0,0,1,432.27,292s31,20.48,38.42,55.39-6.24,64.45-6.24,64.45c-13.23,21.31-28.72,32.82-37.62,38.42a125.69,125.69,0,0,1-21.66,10.66c-12.51,4.77-20.22,5.5-44.91,8.87-19.94,2.72-39.81,5.91-59.74,8.67,0,0,10.12-12,20.75-27.86s21.78-35.42,23.83-50.53l36.3-2.44s23-5,23-29.34c0,0,2-25.49-22.67-35.07l-62.15-2.12q-1,22.81-2,45.63c-2.47,14.77-9.68,44.84-33.86,72.34a140.83,140.83,0,0,1-39.85,31.46A145.54,145.54,0,0,1,180,496.7c-2.8.05-70.21.39-112.4-47.45a151.56,151.56,0,0,1-25.42-41.47,146.64,146.64,0,0,1-8.08-29.59s-1.05-6.6-2.8-35.13Z" transform="translate(-30.8 0.72)"/><path class="cls-1" d="M318.72,185.12V258l43.14,2.23s20.88-5.57,24.77-30.34-23.1-34.79-23.1-34.79Z" transform="translate(-30.8 0.72)"/></g></svg>