<svg id="Layer_2" data-name="Layer 2" xmlns="http://www.w3.org/2000/svg" viewBox="0 0 704.43 237.58"><defs><style>.cls-1{fill:#809598;}.cls-2{fill:#f2f2f2;}</style></defs><title>visa</title><path class="cls-1" d="M477.16,215.67" transform="translate(-1.21 -0.18)"/><path class="cls-2" d="M659.72,4.6l45.92,229.83H652.79L646,200l-73.28.09-12,34.33H501L584.89,25.66c6.77-21,28.52-21.06,28.52-21.06Zm-23,148.17-17.35-86-30.19,86Z" transform="translate(-1.21 -0.18)"/><path class="cls-2" d="M513.07,10.29l-7.43,49.44s-20.12-10.49-38.27-11-23.81,1.4-23.81,1.4-11.17,2-16.36,10.78,0,14.89,0,14.89,5.24,7,10.09,9.56,18.62,10.38,33,18.63S491,121.41,491,121.41s7.92,8.78,10.46,17.36,4.67,12.23,2.69,31.9-15.39,38.5-27.25,46.6-25.16,16-49.44,19.28-52.55-1.1-59.2-2.66-21.41-5.43-26.17-8.42l8.1-51.55a124.38,124.38,0,0,0,40.35,14.63c22.73,3.77,40.26-.12,46.1-5.59,0,0,5.77-4.07,7.86-9.93s.63-12-1.94-15.25-9-10.27-20.84-15.7-23.24-13.56-27.54-16.18-20.56-15.69-26.84-35.73,6.4-47.07,7.85-48.76S388,20.05,410.55,11s27.11-8.35,41-10.26S495.58,2,513.07,10.29Z" transform="translate(-1.21 -0.18)"/><polygon class="cls-2" points="340.89 4.34 305.17 234.19 248.3 234 283.82 4.34 340.89 4.34"/><path class="cls-2" d="M139.13,128l.47-.09q3.21,16.66,6.41,33.34L201.61,4.46h60.44L172.29,234.18l-60.22-.06L61,34.32C118,65.21,138.81,127.05,139.13,128Z" transform="translate(-1.21 -0.18)"/><path class="cls-1" d="M138.41,121.71c.4,2.07.8,4.15,1.19,6.22l-.47.09c-.32-1-21.11-62.81-78.11-93.7-11.4-7.69-24.56-13.12-37.3-18.14C16.42,13.3,8.57,11.73,1.21,9.12c.19-1,0-3.91.84-4.63l0,0c1.23-1,7.79,0,9.52,0q10.15,0,20.31,0c21.85,0,43.7,0,65.54.22a20.89,20.89,0,0,1,13.13,4.56c5.35,4.4,8.22,11.26,9.93,17.81,4,15.23,6,31.13,8.82,46.61Q133.77,97.71,138.41,121.71Z" transform="translate(-1.21 -0.18)"/></svg>